<?xml version="1.0"?>
<svg xmlns="http://www.w3.org/2000/svg" height="512px" viewBox="0 -87 499.13802 499" width="512px" class=""><g><path d="m498.617188 11.703125c-1.207032-3.738281-4.367188-6.511719-8.230469-7.21875-100.917969-18.425781-220.003907 22.628906-259.933594 89.707031-20.246094 32.757813-17.347656 74.777344 7.203125 104.445313 24.4375-31.957031 55.195312-58.539063 90.359375-78.089844 5.089844-2.96875 11.621094-1.25 14.589844 3.839844 2.96875 5.089843 1.25 11.621093-3.839844 14.589843-29.363281 16.578126-55.449219 38.386719-76.972656 64.34375-17.992188 20.941407-31.222657 45.542969-38.777344 72.097657-9.5625-14.425781-21.683594-26.984375-35.769531-37.042969-17.089844-12.027344-35.164063-22.589844-54.03125-31.574219-5.269532-2.636719-7.40625-9.042969-4.769532-14.3125 2.636719-5.269531 9.042969-7.40625 14.3125-4.773437 18.441407 8.78125 36.207032 18.917968 53.148438 30.332031 7.988281-24.078125-.539062-50.554687-21.078125-65.445313-38.761719-29.199218-116.578125-24.988281-169.90625 9.144532-3.308594 2.117187-5.1875 5.878906-4.890625 9.792968.296875 3.917969 2.71875 7.351563 6.308594 8.945313 36.894531 16.34375 44.894531 33.171875 52.632812 49.441406 6.78125 17.953125 20.195313 32.621094 37.476563 40.972657 9.351562 3.171874 19.246093 4.4375 29.097656 3.71875 12.671875-1.015626 24.933594-4.972657 35.808594-11.558594 4.1875-2.613282 8.117187-5.613282 11.742187-8.960938 21.417969 15.621094 42.601563 40.496094 42.601563 59.066406-.390625 2.804688.359375 5.648438 2.078125 7.902344 1.722656 2.25 4.269531 3.71875 7.078125 4.085938.699219.09375 1.40625.117187 2.113281.070312 5.066406-.332031 9.199219-4.191406 9.871094-9.226562 4.019531-31.195313 15.222656-61.03125 32.730468-87.15625 14.226563 8.324218 29.917969 13.839844 46.222657 16.242187 3.640625.539063 7.253906.9375 10.839843 1.191407 32.585938 2.710937 64.867188-7.945313 89.433594-29.519532 25.519532-29.847656 26.941406-55.644531 28.320313-80.601562 1.722656-31.207032 3.503906-63.484375 51.78125-113.777344 2.71875-2.835938 3.660156-6.9375 2.449219-10.671875zm0 0" data-original="#000000" class="active-path" data-old_color="#E8E0E0" fill="#FFFEFE"/></g> </svg>
